<?xml version="1.0" encoding="UTF-8"?>
<svg version="1.1" xmlns="http://www.w3.org/2000/svg" width="500" height="500">
<path d="M0 0 C1.33651809 -0.00418005 2.67303263 -0.00966123 4.00954068 -0.01631981 C7.6579614 -0.0307053 11.3061549 -0.02655148 14.9545877 -0.019153 C18.89880318 -0.01440643 22.84297055 -0.02694431 26.78717041 -0.03717041 C34.50486422 -0.05433478 42.22247652 -0.05520332 49.94018446 -0.04995751 C56.21559528 -0.04591009 62.49098208 -0.04736615 68.76639175 -0.05270576 C69.66078922 -0.05345419 70.55518669 -0.05420261 71.47668711 -0.05497371 C73.293871 -0.05650525 75.11105489 -0.05804359 76.92823876 -0.05958868 C93.95565005 -0.07330523 110.98301535 -0.06788202 128.01042558 -0.05640347 C143.57312451 -0.04647245 159.13570452 -0.05941099 174.6983851 -0.08333766 C190.69522754 -0.10774569 206.69201464 -0.11733231 222.68887532 -0.11068493 C231.66306016 -0.10719644 240.63715358 -0.1094003 249.61132431 -0.12693596 C257.25094886 -0.14167928 264.89041761 -0.14226562 272.53003918 -0.12486505 C276.42425529 -0.11637007 280.31819332 -0.11416839 284.21239471 -0.1295166 C287.78412129 -0.14341902 291.35533301 -0.1385303 294.92703022 -0.11927737 C296.81651732 -0.11377395 298.706031 -0.1277425 300.59546745 -0.14263147 C314.91033229 -0.02007661 325.53006787 4.76557571 335.86697388 14.5556488 C346.2090211 25.49807705 348.88075943 36.81338641 348.85206604 51.43554688 C348.85730272 52.75472089 348.8625394 54.07389491 348.86793476 55.4330439 C348.88207837 59.08433034 348.88377875 62.73553151 348.88333786 66.38684142 C348.88498931 70.32909942 348.89806208 74.27132262 348.90953064 78.21356201 C348.93235565 86.82951473 348.94029876 95.44544278 348.94535708 104.06142163 C348.94861742 109.44550203 348.95514199 114.8295753 348.96235847 120.21365166 C348.98192219 135.13252945 348.99832739 150.05140064 349.00123501 164.97029209 C349.00142258 165.92453042 349.00161015 166.87876875 349.0018034 167.86192339 C349.00216964 169.79624903 349.00253334 171.73057467 349.00289451 173.66490031 C349.00307732 174.62505093 349.00326014 175.58520154 349.00344849 176.57444763 C349.00371931 178.01644013 349.00371931 178.01644013 349.0039956 179.48756378 C349.00753531 195.05558524 349.03454599 210.62346821 349.07194638 226.19144166 C349.11007335 242.19045384 349.12939281 258.18939739 349.12969452 274.188456 C349.13027815 283.16501896 349.13870891 292.14141677 349.16769218 301.11793709 C349.19226501 308.7634454 349.19944938 316.40872833 349.18444466 324.05426551 C349.17729943 327.95080123 349.17802893 331.84689244 349.20085526 335.74337769 C349.22160421 339.3197278 349.21869923 342.89529616 349.19798041 346.47163927 C349.19289064 348.35881709 349.21214253 350.24601387 349.23264211 352.13308722 C349.09482722 366.32491799 344.2984641 377.48022382 334.48025513 387.53611755 C323.47753161 397.97609155 312.26359722 400.69217628 297.5165863 400.65510559 C296.1826593 400.6588452 294.84873449 400.66344796 293.51481313 400.66883624 C289.85966074 400.68104355 286.20460003 400.68080845 282.54943192 400.67844748 C278.60312568 400.67803874 274.65684862 400.68908406 270.71055603 400.69856262 C262.9824423 400.71516166 255.25435907 400.72067169 247.526229 400.72178738 C241.24216917 400.72273847 234.95811938 400.72685182 228.67406273 400.73318863 C210.84684342 400.75079885 193.01964817 400.76002796 175.1924201 400.75852768 C174.23174404 400.75844777 173.27106798 400.75836786 172.28128052 400.75828552 C171.31942757 400.75820376 170.35757462 400.758122 169.36657461 400.75803776 C153.78428956 400.75722515 138.20210125 400.77635705 122.61984418 400.80456226 C106.60954204 400.8333129 90.59928704 400.84710132 74.58895844 400.8453747 C65.60466215 400.84471151 56.62046723 400.85017286 47.63619423 400.8717308 C39.98552556 400.88997141 32.33500421 400.89426643 24.68432317 400.88071196 C20.78404654 400.8741965 16.8840523 400.8740132 12.9838028 400.89141846 C9.40641449 400.90721805 5.82953088 400.9042163 2.25215437 400.88685019 C0.35953486 400.88235898 -1.53310074 400.89738357 -3.4256584 400.91332948 C-17.85663678 400.79773052 -28.6711975 395.81780114 -39.17208862 386.07518005 C-49.35786003 375.31285555 -51.88048859 363.36073231 -51.80976868 348.96559143 C-51.81394873 347.62907334 -51.81942991 346.2925588 -51.82608849 344.95605075 C-51.84047398 341.30763003 -51.83632016 337.65943653 -51.82892168 334.01100373 C-51.8241751 330.06678825 -51.83671299 326.12262088 -51.84693909 322.17842102 C-51.86410345 314.46072721 -51.864972 306.74311491 -51.85972618 299.02540697 C-51.85567877 292.74999615 -51.85713482 286.47460935 -51.86247444 280.19919968 C-51.86322286 279.30480221 -51.86397129 278.41040474 -51.86474239 277.48890432 C-51.86627392 275.67172043 -51.86781227 273.85453655 -51.86935735 272.03735267 C-51.8830739 255.00994138 -51.8776507 237.98257608 -51.86617214 220.95516585 C-51.85624113 205.39246692 -51.86917966 189.82988691 -51.89310633 174.26720633 C-51.91751437 158.27036389 -51.92710099 142.27357679 -51.92045361 126.27671611 C-51.91696512 117.30253127 -51.91916898 108.32843785 -51.93670464 99.35426712 C-51.95144796 91.71464257 -51.9520343 84.07517382 -51.93463372 76.43555225 C-51.92613875 72.54133614 -51.92393707 68.64739811 -51.93928528 64.75319672 C-51.9531877 61.18147014 -51.94829897 57.61025842 -51.92904604 54.03856121 C-51.92354263 52.14907411 -51.93751117 50.25956043 -51.95240015 48.37012398 C-51.82891661 33.94678591 -46.8471837 23.133154 -37.10958862 12.63768005 C-26.34726412 2.45190865 -14.39514088 -0.07071992 0 0 Z " fill="#2886DD" transform="translate(101.42208862304688,49.61231994628906)"/>
<path d="M0 0 C15.84 0 31.68 0 48 0 C48 21.12 48 42.24 48 64 C66.48 64 84.96 64 104 64 C104 42.88 104 21.76 104 0 C119.84 0 135.68 0 152 0 C152 56.1 152 112.2 152 170 C136.16 170 120.32 170 104 170 C104 147.89 104 125.78 104 103 C85.52 103 67.04 103 48 103 C48 125.11 48 147.22 48 170 C32.16 170 16.32 170 0 170 C0 113.9 0 57.8 0 0 Z " fill="#FBFCFE" transform="translate(174,164)"/>
<path d="M0 0 C8.91 0 17.82 0 27 0 C27 18.81 27 37.62 27 57 C20.73 57 14.46 57 8 57 C8 43.8 8 30.6 8 17 C5.36 17 2.72 17 0 17 C0 11.39 0 5.78 0 0 Z " fill="#FBFCFE" transform="translate(366,101)"/>
</svg>
